Coordinates
version=1
nRows=31
nColumns=33
inDegrees=yes

Units are S.I. units (second, meters, Newtons, ...)
Angles are in degrees.

endheader
time	ground_thorax_rot_x	ground_thorax_rot_y	ground_thorax_rot_z	ground_thorax_tx	ground_thorax_ty	ground_thorax_tz	clav_prot_r	clav_elev_r	scapula_abduction_r	scapula_elevation_r	scapula_upward_rot_r	scapula_winging_r	shoulder_elv_r	plane_of_elev_r	axial_rot_r	elbow_flexion_r	pro_sup_r	wrist_flex_r	wrist_dev_r	clav_prot_l	clav_elev_l	scapula_abduction_l	scapula_elevation_l	scapula_upward_rot_l	scapula_winging_l	shoulder_elv_l	plane_of_elev_l	axial_rot_l	elbow_flexion_l	pro_sup_l	wrist_flex_l	wrist_dev_l	
3.7600	-38.797681	-8.409100	12.907631	-249.767925	849.138601	5.076275	8.034575	-45.000000	38.232021	-45.000000	-38.275182	2057.075459	-467.949797	147.225575	-111.582901	1102.300389	135.092629	10.690974	3.927172	-1.408980	42.707043	-45.000000	-45.000000	32.230882	-600.431271	807.778033	10.614820	180.000000	1814.725207	202.066076	9.162193	-16.483601	
3.7700	-38.829175	-8.417213	12.939128	-249.833179	848.967023	5.063393	7.940855	-45.000000	38.161842	-45.000000	-38.354791	2057.100140	-467.957908	147.216086	-111.627231	1102.310684	135.051433	10.692525	3.919168	-1.415658	42.703805	-45.000000	-45.000000	32.251454	-600.418803	807.788504	10.608978	180.000000	1814.706202	202.076148	9.171161	-16.498427	
3.7800	-38.868991	-8.399310	12.946882	-249.872119	848.798903	5.052179	7.826168	-45.000000	38.049828	-45.000000	-38.435820	2057.139146	-467.963149	147.182723	-111.654774	1102.316735	135.005410	10.700845	3.901515	-1.430941	42.698034	-45.000000	-45.000000	32.287003	-600.408207	807.782642	10.610879	180.000000	1814.674447	202.090007	9.207747	-16.515648	
3.7900	-38.896624	-8.408956	12.974648	-249.851482	848.635235	5.044523	7.782365	-45.000000	37.997783	-45.000000	-38.472555	2057.161383	-467.976178	147.167486	-111.698200	1102.325616	134.952181	10.704173	3.884477	-1.436282	42.695396	-45.000000	-45.000000	32.304764	-600.397941	807.778967	10.612880	180.000000	1814.649990	202.104818	9.221399	-16.530024	
3.8000	-38.911401	-8.441770	13.014878	-249.771320	848.478298	5.040456	7.758332	-45.000000	37.993814	-45.000000	-38.473364	2057.177954	-467.984355	147.168501	-111.752530	1102.340958	134.891679	10.699480	3.869465	-1.440374	42.695181	-45.000000	-45.000000	32.319716	-600.390772	807.785286	10.607818	180.000000	1814.635901	202.123345	9.227575	-16.539898	
3.8100	-38.923106	-8.469207	13.047686	-249.627580	848.330377	5.040143	7.763585	-45.000000	38.006448	-45.000000	-38.444768	2057.194516	-467.992197	147.164848	-111.803345	1102.355539	134.823179	10.696799	3.847266	-1.445255	42.693682	-45.000000	-45.000000	32.346931	-600.383857	807.785829	10.608525	180.000000	1814.623886	202.146561	9.235037	-16.546498	
3.8200	-38.923614	-8.505850	13.085637	-249.424586	848.193084	5.043139	7.769221	-45.000000	38.054011	-45.000000	-38.384949	2057.208940	-467.994908	147.173848	-111.859134	1102.371431	134.749061	10.687623	3.827491	-1.454055	42.690868	-45.000000	-45.000000	32.390536	-600.381301	807.797944	10.601437	180.000000	1814.623020	202.174584	9.240260	-16.546158	
3.8300	-38.927378	-8.512140	13.099305	-249.169222	848.067553	5.048765	7.784813	-45.000000	38.084666	-45.000000	-38.309894	2057.229910	-467.996848	147.162684	-111.898871	1102.381468	134.671202	10.685796	3.797271	-1.468759	42.683258	-45.000000	-45.000000	32.467949	-600.376453	807.797540	10.604649	180.000000	1814.620527	202.207149	9.256926	-16.541785	
3.8400	-38.923581	-8.517854	13.116294	-248.865750	847.953410	5.056399	7.795231	-45.000000	38.136099	-45.000000	-38.209201	2057.245939	-467.994168	147.161269	-111.940703	1102.393140	134.593642	10.677243	3.770728	-1.490067	42.671838	-45.000000	-45.000000	32.572412	-600.374288	807.809374	10.600772	180.000000	1814.621648	202.241501	9.272273	-16.531063	
3.8500	-38.924547	-8.498488	13.117396	-248.515469	847.849269	5.065609	7.819630	-45.000000	38.168985	-45.000000	-38.092360	2057.264924	-467.995449	147.146379	-111.970142	1102.398107	134.518556	10.674235	3.736666	-1.516453	42.655884	-45.000000	-45.000000	32.711950	-600.365917	807.811812	10.607928	180.000000	1814.616478	202.276652	9.296434	-16.517092	
3.8600	-38.918138	-8.486072	13.128313	-248.116935	847.752165	5.076161	7.837295	-45.000000	38.227557	-45.000000	-37.952014	2057.280185	-467.995681	147.147597	-112.006330	1102.403171	134.449797	10.662153	3.709365	-1.551258	42.635120	-45.000000	-45.000000	32.875423	-600.363811	807.829808	10.603892	180.000000	1814.617866	202.310971	9.319732	-16.496053	
3.8700	-38.912939	-8.463822	13.132568	-247.666456	847.658042	5.088035	7.865587	-45.000000	38.277931	-45.000000	-37.795748	2057.302172	-467.998631	147.142009	-112.039048	1102.399181	134.389503	10.653710	3.677589	-1.589417	42.613469	-45.000000	-45.000000	33.069313	-600.351277	807.844983	10.610911	180.000000	1814.619688	202.344395	9.350265	-16.470914	
3.8800	-38.901766	-8.455203	13.146514	-247.158998	847.561819	5.101329	7.883218	-45.000000	38.355895	-45.000000	-37.613781	2057.322152	-467.997004	147.149414	-112.086743	1102.403612	134.339234	10.633791	3.652895	-1.640325	42.586253	-45.000000	-45.000000	33.286444	-600.347912	807.882591	10.602972	180.000000	1814.626838	202.375751	9.378424	-16.439394	
3.8900	-38.894017	-8.443154	13.150713	-246.588863	847.457842	5.116210	7.909099	-45.000000	38.429085	-45.000000	-37.415551	2057.352191	-467.999058	147.148034	-112.137085	1102.409901	134.298166	10.617473	3.620983	-1.698236	42.559972	-45.000000	-45.000000	33.534999	-600.334428	807.923288	10.607618	180.000000	1814.640854	202.407436	9.412408	-16.402336	
3.9000	-38.883673	-8.434562	13.152803	-245.950596	847.340449	5.132837	7.925444	-45.000000	38.521569	-45.000000	-37.197842	2057.386023	-467.997806	147.150475	-112.202874	1102.429193	134.265547	10.593985	3.590942	-1.769886	42.523409	-45.000000	-45.000000	33.810200	-600.335419	807.976750	10.596483	180.000000	1814.660378	202.439262	9.444027	-16.358549	
3.9100	-38.874943	-8.416219	13.142511	-245.239173	847.204417	5.151363	7.948364	-45.000000	38.603763	-45.000000	-36.967402	2057.430985	-467.996645	147.138888	-112.273523	1102.448606	134.239533	10.579900	3.549011	-1.843832	42.490049	-45.000000	-45.000000	34.119218	-600.320220	808.022555	10.603710	180.000000	1814.681972	202.474537	9.482416	-16.310651	
3.9200	-38.858888	-8.398541	13.132288	-244.450387	847.045375	5.171938	7.956812	-45.000000	38.696267	-45.000000	-36.713147	2057.478505	-467.985948	147.128408	-112.363498	1102.476521	134.217816	10.562173	3.507294	-1.925817	42.444536	-45.000000	-45.000000	34.451977	-600.313567	808.071551	10.593550	180.000000	1814.696230	202.513560	9.518566	-16.259466	
3.9300	-38.840253	-8.376060	13.120075	-243.580842	846.859955	5.194733	7.963410	-45.000000	38.771439	-45.000000	-36.453593	2057.544248	-467.973031	147.111746	-112.457209	1102.496510	134.197159	10.557706	3.452346	-2.005551	42.406841	-45.000000	-45.000000	34.806099	-600.289856	808.107802	10.600891	180.000000	1814.712503	202.562400	9.562401	-16.204514	
3.9400	-38.812850	-8.359625	13.119064	-242.627760	846.645710	5.219941	7.952642	-45.000000	38.849504	-45.000000	-36.177295	2057.613988	-467.954920	147.099299	-112.573254	1102.513687	134.176040	10.552339	3.398693	-2.087366	42.359149	-45.000000	-45.000000	35.153581	-600.277723	808.132848	10.590743	180.000000	1814.711005	202.622006	9.605496	-16.149956	
3.9500	-38.782274	-8.346631	13.126718	-241.588750	846.400812	5.247778	7.944420	-45.000000	38.910717	-45.000000	-35.893068	2057.693611	-467.939377	147.079828	-112.696132	1102.518223	134.149972	10.562048	3.331770	-2.162159	42.327636	-45.000000	-45.000000	35.478389	-600.252844	808.127066	10.602071	180.000000	1814.694960	202.700732	9.658360	-16.099043	
3.9600	-38.745915	-8.349177	13.148447	-240.461160	846.123546	5.278462	7.924914	-45.000000	38.975215	-45.000000	-35.586507	2057.772812	-467.925902	147.062280	-112.839721	1102.521744	134.114482	10.571602	3.264764	-2.232223	42.291973	-45.000000	-45.000000	35.756583	-600.243525	808.098543	10.602481	180.000000	1814.652566	202.803329	9.712871	-16.054223	
3.9700	-38.710170	-8.354368	13.167507	-239.241954	845.811811	5.312185	7.905577	-45.000000	39.038617	-45.000000	-35.262011	2057.858556	-467.922298	147.038246	-112.988881	1102.523774	134.061247	10.594874	3.182753	-2.288375	42.272493	-45.000000	-45.000000	36.011271	-600.224919	808.037996	10.625505	180.000000	1814.602383	202.942591	9.777776	-16.014886	
3.9800	-38.670998	-8.363730	13.184226	-237.927140	845.462567	5.349099	7.876526	-45.000000	39.124923	-45.000000	-34.896510	2057.937267	-467.931158	147.015153	-113.159659	1102.525145	133.982080	10.620678	3.098896	-2.333559	42.244506	-45.000000	-45.000000	36.260623	-600.209819	807.959594	10.643924	180.000000	1814.534450	203.124293	9.844490	-15.981529	
3.9900	-38.628364	-8.335179	13.146683	-236.512292	845.071575	5.389287	7.839064	-45.000000	39.263863	-45.000000	-34.425219	2057.995923	-467.966766	146.983758	-113.355018	1102.523055	133.859960	10.661992	3.001786	-2.359074	42.200347	-45.000000	-45.000000	36.679897	-600.140312	807.897645	10.682700	180.000000	1814.486683	203.367962	9.915484	-15.947957	
4.0000	-38.580453	-8.280653	13.068203	-234.992446	844.633207	5.432739	7.792675	-45.000000	39.448687	-45.000000	-33.857937	2058.042181	-468.021639	146.951351	-113.568680	1102.516632	133.674699	10.711367	2.901075	-2.387276	42.125764	-45.000000	-45.000000	37.256127	-600.035090	807.865175	10.719223	180.000000	1814.451697	203.672248	9.980671	-15.907232	
4.0100	-38.526738	-8.174664	12.919336	-233.362932	844.140582	5.479272	7.735097	-45.000000	39.682501	-45.000000	-33.137329	2058.091989	-468.083322	146.934902	-113.803669	1102.507934	133.396884	10.788639	2.776291	-2.455435	41.996530	-45.000000	-45.000000	38.173886	-599.865598	807.928403	10.744024	180.000000	1814.460461	204.046779	10.023343	-15.837557	
4.0200	-38.468308	-8.057512	12.748952	-231.619820	843.585892	5.528451	7.680614	-45.000000	39.932793	-45.000000	-32.324898	2058.163020	-468.135476	146.942216	-114.054470	1102.496469	132.998325	10.891590	2.632163	-2.588032	41.822733	-45.000000	-45.000000	39.293185	-599.675886	808.065373	10.739522	180.000000	1814.485088	204.473792	10.037386	-15.735919	
4.0300	-38.404692	-7.921570	12.547893	-229.760506	842.960807	5.579494	7.630631	-45.000000	40.203344	-45.000000	-31.411095	2058.253698	-468.180387	146.971629	-114.335158	1102.480199	132.450104	11.029551	2.463301	-2.775872	41.605139	-45.000000	-45.000000	40.636499	-599.451432	808.276010	10.714574	180.000000	1814.532649	204.947553	10.024747	-15.601929	
4.0400	-38.341849	-7.824530	12.386926	-227.783502	842.256831	5.631218	7.598201	-45.000000	40.446775	-45.000000	-30.532283	2058.375789	-468.216211	147.009327	-114.627837	1102.455306	131.727814	11.191425	2.286838	-2.998872	41.397378	-45.000000	-45.000000	41.885194	-599.251182	808.461780	10.680917	180.000000	1814.559770	205.439132	10.002563	-15.454091	
4.0500	-38.278306	-7.760510	12.258687	-225.688465	841.465754	5.682047	7.575470	-45.000000	40.677266	-45.000000	-29.681141	2058.516828	-468.251519	147.050194	-114.952741	1102.418274	130.807744	11.382212	2.103826	-3.225306	41.203619	-45.000000	-44.999999	43.032150	-599.066452	808.609404	10.642895	180.000000	1814.567026	205.941720	9.978122	-15.302527	
4.0600	-38.218223	-7.761788	12.200300	-223.475935	840.579924	5.730049	7.566302	-45.000000	40.884072	-45.000000	-28.938411	2058.669760	-468.298406	147.079762	-115.303888	1102.364194	129.665688	11.593295	1.930933	-3.404458	41.066820	-45.000000	-44.999999	43.861029	-598.931140	808.641588	10.614396	180.000000	1814.530115	206.438064	9.973255	-15.172029	
